<?xml version="1.0" encoding="UTF-8"?>
<svg width="26px" height="29px" viewBox="0 0 26 29" version="1.1" xmlns="http://www.w3.org/2000/svg" xmlns:xlink="http://www.w3.org/1999/xlink">
    <!-- Generator: Sketch 52.6 (67491) - http://www.bohemiancoding.com/sketch -->
    <title>enernys_castle</title>
    <desc>Created with Sketch.</desc>
    <defs>
        <polygon id="path-1" points="0 0.065026178 7.10177963 0.065026178 7.10177963 14.8115183 0 14.8115183"></polygon>
    </defs>
    <g id="Design" stroke="none" stroke-width="1" fill="none" fill-rule="evenodd">
        <g id="0.4_Page2Rules" transform="translate(-85.000000, -414.000000)">
            <g id="mini-blue-flag-" transform="translate(85.000000, 414.000000)">
                <g id="miniredflag" transform="translate(12.000000, 0.000000)" fill="#E16070">
                    <polygon id="Rectangle-2" points="0 0 6.66666667 0 4.82269504 2.11764706 6.66666667 4.23529412 0 4.23529412"></polygon>
                    <polygon id="Rectangle-7" points="2.06279438e-13 0.431372549 1.48148148 0.431372549 1.48148148 6.66666667 2.06279438e-13 6.66666667"></polygon>
                </g>
                <g id="enermy-castle" transform="translate(0.000000, 5.333333)">
                    <g id="Group-20">
                        <path d="M23.5179028,15.7242932 L23.5179028,14.5622513 L23.5179028,13.9950785 C23.5179028,13.3568586 23.0003102,12.8390576 22.3623472,12.8390576 C22.0433657,12.8390576 21.7533935,12.9679058 21.5439491,13.1774346 C21.335588,13.3869634 21.205588,13.6759686 21.205588,13.9950785 L21.205588,14.5622513 L21.205588,15.7242932 L23.5179028,15.7242932 Z M25.9132731,8.63041885 L25.9132731,22.8892147 L18.7777176,22.8892147 L18.7777176,8.14272251 L19.2989213,8.14272251 L20.6085509,8.14272251 C20.8770972,8.14272251 21.0961713,8.36068063 21.0961713,8.63041885 L21.0961713,9.94057592 C21.0961713,10.2103141 21.3139213,10.4282723 21.5824676,10.4282723 L23.1411435,10.4282723 C23.4107731,10.4282723 23.6287639,10.2103141 23.6287639,9.94057592 L23.6287639,8.63041885 C23.6287639,8.36068063 23.8465139,8.14272251 24.1162639,8.14272251 L25.4258935,8.14272251 C25.6955231,8.14272251 25.9132731,8.36068063 25.9132731,8.63041885 Z" id="Fill-1" fill="#6D6E71"></path>
                        <path d="M22.3623954,12.8390576 C23.0003583,12.8390576 23.5179509,13.3568586 23.5179509,13.9950785 L23.5179509,14.5622513 L23.5179509,15.7242932 L21.2056361,15.7242932 L21.2056361,14.5622513 L21.2056361,13.9950785 C21.2056361,13.6759686 21.3356361,13.3869634 21.5438769,13.1774346 C21.7533213,12.9679058 22.0434139,12.8390576 22.3623954,12.8390576" id="Fill-3" fill="#231F20"></path>
                        <path d="M14.0965741,10.4656021 L14.0965741,9.89842932 C14.0965741,9.26020942 13.5789815,8.74240838 12.9398148,8.74240838 C12.6208333,8.74240838 12.3319444,8.87125654 12.1225,9.08078534 C11.9130556,9.29031414 11.7842593,9.57931937 11.7842593,9.89842932 L11.7842593,10.4656021 L14.0965741,10.4656021 Z M14.0965741,15.7242932 L14.0965741,14.5622513 L14.0965741,13.9950785 C14.0965741,13.3568586 13.5789815,12.8390576 12.9398148,12.8390576 C12.6208333,12.8390576 12.3319444,12.9679058 12.1225,13.1774346 C11.9130556,13.3869634 11.7842593,13.6759686 11.7842593,13.9950785 L11.7842593,14.5622513 L11.7842593,15.7242932 L14.0965741,15.7242932 Z M18.7777778,8.14272251 L18.7777778,22.8892147 L16.424537,22.8892147 L16.424537,21.6115707 C16.424537,19.6704188 14.8525,18.0977487 12.9121296,18.0977487 C11.9419444,18.0977487 11.0644444,18.4903141 10.4288889,19.1261257 C9.79333333,19.7619372 9.39972222,20.6409948 9.39972222,21.6115707 L9.39972222,22.8892147 L7.10185185,22.8892147 L7.10185185,8.14272251 L7.10185185,6.29068063 L18.7777778,6.29068063 L18.7777778,8.14272251 Z" id="Fill-5" fill="#939598"></path>
                        <path d="M12.9121537,18.0977366 C14.8525241,18.0977366 16.4245611,19.6705272 16.4245611,21.6115586 L16.4245611,22.8892026 L9.3997463,22.8892026 L9.3997463,21.6115586 C9.3997463,20.6409827 9.79335741,19.7619251 10.428913,19.1261136 C11.0643481,18.4903021 11.9418481,18.0977366 12.9121537,18.0977366" id="Fill-7" fill="#231F20"></path>
                        <path d="M12.1224519,9.08078534 C12.3318963,8.87125654 12.6209056,8.74240838 12.9397667,8.74240838 C13.5790537,8.74240838 14.0965259,9.26020942 14.0965259,9.89842932 L14.0965259,10.4656021 L11.7842111,10.4656021 L11.7842111,9.89842932 C11.7842111,9.57931937 11.9131278,9.29031414 12.1224519,9.08078534" id="Fill-9" fill="#231F20"></path>
                        <path d="M12.1224519,13.1773864 C12.3318963,12.967978 12.6209056,12.8390094 12.9397667,12.8390094 C13.5790537,12.8390094 14.0965259,13.3568105 14.0965259,13.9950304 L14.0965259,14.5622031 L14.0965259,15.724245 L11.7842111,15.724245 L11.7842111,14.5622031 L11.7842111,13.9950304 C11.7842111,13.6760408 11.9131278,13.3869152 12.1224519,13.1773864" id="Fill-11" fill="#231F20"></path>
                        <g id="Group-15" transform="translate(0.000000, 8.077696)">
                            <mask id="mask-2" fill="white">
                                <use xlink:href="#path-1"></use>
                            </mask>
                            <g id="Clip-14"></g>
                            <path d="M4.70051111,7.64659686 L4.70051111,6.48455497 L4.70051111,5.9173822 C4.70051111,5.2791623 4.18279815,4.76136126 3.54375185,4.76136126 C3.22465,4.76136126 2.93588148,4.89020942 2.72643704,5.09973822 C2.51687222,5.30926702 2.3881963,5.59827225 2.3881963,5.9173822 L2.3881963,6.48455497 L2.3881963,7.64659686 L4.70051111,7.64659686 Z M7.10177963,0.065026178 L7.10177963,14.8115183 L-7.22222222e-05,14.8115183 L-7.22222222e-05,0.552722513 C-7.22222222e-05,0.282984293 0.219122222,0.065026178 0.487548148,0.065026178 L1.79717778,0.065026178 C2.06668704,0.065026178 2.28467778,0.282984293 2.28467778,0.552722513 L2.28467778,1.86287958 C2.28467778,2.1326178 2.50242778,2.35057592 2.77205741,2.35057592 L4.33097407,2.35057592 C4.59927963,2.35057592 4.8183537,2.1326178 4.8183537,1.86287958 L4.8183537,0.552722513 C4.8183537,0.282984293 5.03634444,0.065026178 5.30477037,0.065026178 L6.61548333,0.065026178 L7.10177963,0.065026178 Z" id="Fill-13" fill="#6D6E71" mask="url(#mask-2)"></path>
                        </g>
                        <path d="M18.7777296,6.29069267 L7.1018037,6.29069267 L6.86467407,6.29069267 C6.76837778,6.29069267 6.72022963,6.17388639 6.78884074,6.10645183 L12.4017111,0.490116754 L12.8604426,0.0313209424 C12.8821093,0.0108497382 12.9096741,1.20418848e-05 12.9373593,1.20418848e-05 C12.9650444,1.20418848e-05 12.9927296,0.0108497382 13.0143963,0.0313209424 L13.4814333,0.498425654 L19.0859981,6.10645183 C19.1544889,6.17388639 19.1063407,6.29069267 19.0101648,6.29069267 L18.7777296,6.29069267 Z" id="Fill-16" fill="#414042"></path>
                        <path d="M3.54371574,12.8390576 C4.18288241,12.8390576 4.700475,13.3568586 4.700475,13.9950785 L4.700475,14.5622513 L4.700475,15.7242932 L2.38816019,15.7242932 L2.38816019,14.5622513 L2.38816019,13.9950785 C2.38816019,13.6759686 2.51695648,13.3869634 2.72640093,13.1774346 C2.93584537,12.9679058 3.22473426,12.8390576 3.54371574,12.8390576" id="Fill-18" fill="#231F20"></path>
                    </g>
                </g>
            </g>
        </g>
    </g>
</svg>