<?xml version="1.0" encoding="UTF-8"?>
<svg width="51px" height="43px" viewBox="0 0 51 43" version="1.1" xmlns="http://www.w3.org/2000/svg" xmlns:xlink="http://www.w3.org/1999/xlink">
    <!-- Generator: Sketch 52.6 (67491) - http://www.bohemiancoding.com/sketch -->
    <title>take_a_poopy</title>
    <desc>Created with Sketch.</desc>
    <g id="Design" stroke="none" stroke-width="1" fill="none" fill-rule="evenodd">
        <g id="0.4_Page2Rules" transform="translate(-360.000000, -133.000000)">
            <g id="PoopyLogo" transform="translate(360.000000, 133.000000)">
                <path d="M41.1790928,42.2465679 L8.88524187,42.2465679 C3.978245,42.2465679 1.43529633e-12,38.338428 1.43529633e-12,33.5179028 C1.43529633e-12,28.6973777 3.978245,24.7892378 8.88524187,24.7892378 L41.1790928,24.7892378 C46.0860897,24.7892378 50.0643347,28.6973777 50.0643347,33.5179028 C50.0643347,38.338428 46.0860897,42.2465679 41.1790928,42.2465679" id="Fill-1" fill="#A07050" fill-rule="evenodd"></path>
                <path d="M37.8133127,25.1859953 L12.251022,25.1859953 C9.02390569,25.1859953 6.40823484,22.5212355 6.40823484,19.2344356 C6.40823484,15.9472415 9.02390569,13.2832701 12.251022,13.2832701 L37.8133127,13.2832701 C41.040429,13.2832701 43.6560998,15.9472415 43.6560998,19.2344356 C43.6560998,22.5212355 41.040429,25.1859953 37.8133127,25.1859953" id="Fill-5" fill="#A07050" fill-rule="evenodd"></path>
                <path d="M35.1811831,7.9374332 C35.1587021,7.74103307 35.1217417,7.53602576 35.0725882,7.32593239 C34.8717829,6.46560591 34.4515015,5.51177419 33.9142425,4.58728512 C31.9290513,1.17414816 28.6471988,-1.05589318 29.5868305,1.50630695 C29.8276445,2.16240859 30.1922948,2.78760264 30.1922948,3.5415131 C30.1922948,5.41044424 28.8201886,6.9483903 27.0537114,7.15574502 C27.0537114,7.15574502 24.7217785,7.38383522 24.1494643,7.43978187 C24.145654,7.4401731 24.1384143,7.44056434 24.1262212,7.44173804 C24.1205057,7.44252051 24.113647,7.44330299 24.1075505,7.44369422 C24.101835,7.44447669 24.0984057,7.44447669 24.091547,7.44525916 L24.091166,7.44525916 C24.0660177,7.44799781 24.046966,7.44995399 24.036678,7.45073646 C24.0317246,7.45151893 24.0294384,7.45151893 24.0279142,7.45151893 C23.4254982,7.51059546 20.8176962,7.76607213 20.8176962,7.76607213 C18.6374153,7.98320773 17.111752,8.66434843 16.0402822,9.50902549 C15.9686477,9.56497214 15.8992994,9.62248374 15.8318562,9.67999533 C13.56127,11.6201313 14.7081847,14.2832701 14.7081847,14.2832701 L32.2456912,14.2832701 C34.0365546,12.9276397 35.5827938,11.5129328 35.1811831,7.9374332" id="Fill-9" fill="#A07050" fill-rule="evenodd"></path>
                <path d="M18.4236752,31.5338786 C18.4236752,29.7812691 16.9890028,28.3600553 15.2193188,28.3600553 C13.4501126,28.3600553 12.0154403,29.7812691 12.0154403,31.5338786 C12.0154403,33.2869615 13.4501126,34.7081754 15.2193188,34.7081754 C16.9890028,34.7081754 18.4236752,33.2869615 18.4236752,31.5338786" id="Fill-13" fill="#493124" fill-rule="evenodd"></path>
                <path d="M17.6226458,30.3440799 C17.6226458,29.6864786 17.084691,29.1535703 16.4208625,29.1535703 C15.7575125,29.1535703 15.2195577,29.6864786 15.2195577,30.3440799 C15.2195577,31.001207 15.7575125,31.5341153 16.4208625,31.5341153 C17.084691,31.5341153 17.6226458,31.001207 17.6226458,30.3440799" id="Fill-15" fill="#FFFFFF" fill-rule="evenodd"></path>
                <path d="M38.0488943,31.5338786 C38.0488943,29.7812691 36.614222,28.3600553 34.844538,28.3600553 C33.0753318,28.3600553 31.6406595,29.7812691 31.6406595,31.5338786 C31.6406595,33.2869615 33.0753318,34.7081754 34.844538,34.7081754 C36.614222,34.7081754 38.0488943,33.2869615 38.0488943,31.5338786" id="Fill-17" fill="#493124" fill-rule="evenodd"></path>
                <path d="M37.247865,30.3440799 C37.247865,29.6864786 36.7099102,29.1535703 36.0460817,29.1535703 C35.3827317,29.1535703 34.8447769,29.6864786 34.8447769,30.3440799 C34.8447769,31.001207 35.3827317,31.5341153 36.0460817,31.5341153 C36.7099102,31.5341153 37.247865,31.001207 37.247865,30.3440799" id="Fill-19" fill="#FFFFFF" fill-rule="evenodd"></path>
                <path d="M22.8293366,33.5179028 C22.8293366,33.5179028 23.383612,34.7081754 25.4337231,34.7081754 C27.4838342,34.7081754 28.0360274,33.5179028 28.0360274,33.5179028" id="Stroke-21" stroke="#493124" stroke-width="2" stroke-linecap="round" stroke-linejoin="round"></path>
            </g>
        </g>
    </g>
</svg>